<svg width="16" height="16" viewBox="0 0 16 16" fill="none" xmlns="http://www.w3.org/2000/svg">
<path d="M6.44667 7.90334L6.40667 7.98334C6.24 8.30667 5.97667 8.57 5.65334 8.73667L5.57334 8.77667C5.25667 8.93667 5.25667 9.39 5.57334 9.55334L5.65334 9.59334C5.97667 9.76 6.24 10.0233 6.40667 10.3467L6.44667 10.4267C6.60667 10.7433 7.06 10.7433 7.22334 10.4267L7.26334 10.3467C7.43 10.0233 7.69334 9.76 8.01667 9.59334L8.09667 9.55334C8.41334 9.39334 8.41334 8.94 8.09667 8.77667L8.01667 8.73667C7.69334 8.57 7.43 8.30667 7.26334 7.98334L7.22334 7.90334C7.06334 7.58667 6.61 7.58667 6.44667 7.90334Z" fill="#0CC0DF"/>
<path d="M11.6667 7.83334C11.39 7.83334 11.1667 8.05667 11.1667 8.33334V10.28C11.1667 10.77 10.77 11.1667 10.28 11.1667H5.71667C5.22667 11.1667 4.83 10.77 4.83 10.28V5.71667C4.83 5.22667 5.22667 4.83 5.71667 4.83H7.66334C7.94 4.83 8.16334 4.60667 8.16334 4.33C8.16334 4.05334 7.94 3.83 7.66334 3.83H5.71667C4.67667 3.83 3.83 4.67667 3.83 5.71667V10.28C3.83 11.32 4.67667 12.1667 5.71667 12.1667H10.28C11.32 12.1667 12.1667 11.32 12.1667 10.28V8.33334C12.1667 8.05667 11.9433 7.83334 11.6667 7.83334Z" fill="#0CC0DF"/>
<path d="M14.3333 6.14667C14.5167 6.14667 14.6667 5.99667 14.6667 5.81334V5.48C14.6667 5.29667 14.5167 5.14667 14.3333 5.14667H13.4533C13.2333 3.81667 12.1833 2.76667 10.8533 2.54667V1.66667C10.8533 1.48334 10.7033 1.33334 10.52 1.33334H10.1867C10.0033 1.33334 9.85334 1.48334 9.85334 1.66667V2.5H9.28334V1.66667C9.28334 1.48334 9.13334 1.33334 8.95 1.33334H8.61667C8.43334 1.33334 8.28334 1.48334 8.28334 1.66667V2.5H7.71334V1.66667C7.71334 1.48334 7.56334 1.33334 7.38 1.33334H7.04667C6.86334 1.33334 6.71334 1.48334 6.71334 1.66667V2.5H6.14334V1.66667C6.14334 1.48334 5.99334 1.33334 5.81 1.33334H5.47667C5.29334 1.33334 5.14334 1.48334 5.14334 1.66667V2.54667C3.81334 2.76667 2.76334 3.81667 2.54334 5.14667H1.66334C1.48 5.14667 1.33 5.29667 1.33 5.48V5.81334C1.33 5.99667 1.48 6.14667 1.66334 6.14667H2.49667V6.71667H1.66334C1.48 6.71667 1.33 6.86667 1.33 7.05V7.38334C1.33 7.56667 1.48 7.71667 1.66334 7.71667H2.49667V8.28667H1.66334C1.48 8.28667 1.33 8.43667 1.33 8.62V8.95334C1.33 9.13667 1.48 9.28667 1.66334 9.28667H2.49667V9.85667H1.66334C1.48 9.85667 1.33 10.0067 1.33 10.19V10.5233C1.33 10.7067 1.48 10.8567 1.66334 10.8567H2.54334C2.76334 12.1867 3.81334 13.2367 5.14334 13.4567V14.3367C5.14334 14.52 5.29334 14.67 5.47667 14.67H5.81C5.99334 14.67 6.14334 14.52 6.14334 14.3367V13.5033H6.71334V14.3367C6.71334 14.52 6.86334 14.67 7.04667 14.67H7.38C7.56334 14.67 7.71334 14.52 7.71334 14.3367V13.5033H8.28334V14.3367C8.28334 14.52 8.43334 14.67 8.61667 14.67H8.95C9.13334 14.67 9.28334 14.52 9.28334 14.3367V13.5033H9.85334V14.3367C9.85334 14.52 10.0033 14.67 10.1867 14.67H10.52C10.7033 14.67 10.8533 14.52 10.8533 14.3367V13.4567C12.1833 13.2367 13.2333 12.1867 13.4533 10.8567H14.3333C14.5167 10.8567 14.6667 10.7067 14.6667 10.5233V10.19C14.6667 10.0067 14.5167 9.85667 14.3333 9.85667H13.5V9.28667H14.3333C14.5167 9.28667 14.6667 9.13667 14.6667 8.95334V8.62C14.6667 8.43667 14.5167 8.28667 14.3333 8.28667H13.5V7.71667H14.3333C14.5167 7.71667 14.6667 7.56667 14.6667 7.38334V7.05C14.6667 6.86667 14.5167 6.71667 14.3333 6.71667H13.5V6.14667H14.3333ZM12.5 10.3333C12.5 11.5267 11.5267 12.5 10.3333 12.5H5.66667C4.47334 12.5 3.5 11.5267 3.5 10.3333V5.66667C3.5 4.47334 4.47334 3.5 5.66667 3.5H10.3333C11.5267 3.5 12.5 4.47334 12.5 5.66667V10.3333Z" fill="#0CC0DF"/>
<path d="M11.5267 5.40667L11.42 5.35334C11.0867 5.18334 10.82 4.91667 10.65 4.58334L10.5967 4.47667C10.4133 4.11667 10.0467 3.89334 9.64334 3.89334C9.24 3.89334 8.87334 4.11667 8.68667 4.47667L8.63334 4.58334C8.46334 4.91667 8.19667 5.18334 7.86334 5.35334L7.75667 5.40667C7.39667 5.59 7.17334 5.95667 7.17334 6.36C7.17334 6.76334 7.39667 7.13 7.75667 7.31667L7.86334 7.37C8.19667 7.54 8.46334 7.80667 8.63334 8.14L8.68667 8.24667C8.87 8.60667 9.23667 8.83 9.64334 8.83C10.05 8.83 10.4133 8.60667 10.6 8.24667L10.6533 8.14C10.8233 7.80667 11.09 7.54 11.4233 7.37L11.53 7.31667C11.89 7.13334 12.1133 6.76667 12.1133 6.36C12.1133 5.95334 11.89 5.59 11.53 5.40334L11.5267 5.40667ZM11.0733 6.42667L10.9667 6.48C10.4433 6.74667 10.0267 7.16334 9.76 7.68667L9.70667 7.79334C9.70667 7.79334 9.68667 7.83334 9.64334 7.83334C9.6 7.83334 9.58334 7.80334 9.58 7.79334L9.52667 7.68667C9.26 7.16334 8.84334 6.74667 8.32 6.48L8.21334 6.42667C8.21334 6.42667 8.17334 6.40667 8.17334 6.36334C8.17334 6.32 8.20334 6.30334 8.21334 6.3L8.32 6.24667C8.84334 5.98 9.26 5.56334 9.52667 5.04L9.58 4.93334C9.58 4.93334 9.6 4.89334 9.64334 4.89334C9.68667 4.89334 9.70334 4.92 9.70667 4.93334L9.76 5.04C10.0267 5.56334 10.4433 5.98 10.9667 6.24667L11.0733 6.3C11.0733 6.3 11.1133 6.32 11.1133 6.36334C11.1133 6.40667 11.0833 6.42334 11.0733 6.42667Z" fill="#0CC0DF"/>
</svg>
