<svg width="14" height="13" viewBox="0 0 14 13" fill="none" xmlns="http://www.w3.org/2000/svg">
<path d="M11.5 11.5H0.5C0.223858 11.5 0 11.7239 0 12C0 12.2761 0.223858 12.5 0.5 12.5H11.5C11.7761 12.5 12 12.2761 12 12C12 11.7239 11.7761 11.5 11.5 11.5Z" fill="#E66D17"/>
<path d="M0.5 2.1C0.5 1.81172 0.50039 1.62559 0.51196 1.48392C0.52306 1.34809 0.5419 1.29773 0.5545 1.273C0.60243 1.17892 0.67892 1.10243 0.773 1.0545C0.79773 1.0419 0.84809 1.02306 0.98392 1.01196C1.12559 1.00039 1.31172 1 1.6 1H9.4C9.6883 1 9.8744 1.00039 10.0161 1.01196C10.1519 1.02306 10.2023 1.0419 10.227 1.0545C10.3211 1.10243 10.3976 1.17892 10.4455 1.273C10.4581 1.29773 10.4769 1.34809 10.488 1.48392C10.4996 1.62559 10.5 1.81172 10.5 2.1V5C10.5 6.43194 10.4946 7.03707 10.3493 7.516C10.01 8.6346 9.1346 9.51 8.016 9.8493C7.53707 9.9946 6.93194 10 5.5 10C4.06806 10 3.46293 9.9946 2.984 9.8493C1.8654 9.51 0.99003 8.6346 0.65071 7.516C0.50543 7.03707 0.5 6.43194 0.5 5V2.1Z" fill="#FFF4EB"/>
<path d="M10.4455 1.273C10.3976 1.17892 10.3211 1.10243 10.227 1.0545C10.2023 1.0419 10.1519 1.02306 10.0161 1.01196C9.8744 1.00039 9.6883 1 9.4 1H1.6C1.31172 1 1.12559 1.00039 0.98392 1.01196C0.84809 1.02306 0.79773 1.0419 0.773 1.0545C0.67892 1.10243 0.60243 1.17892 0.5545 1.273C0.5419 1.29773 0.52306 1.34809 0.51196 1.48392C0.50039 1.62559 0.5 1.81172 0.5 2.1V5C0.5 6.43194 0.50543 7.03707 0.65071 7.516C0.99003 8.6346 1.8654 9.51 2.984 9.8493C3.46293 9.9946 4.06806 10 5.5 10C6.93194 10 7.53707 9.9946 8.016 9.8493C9.1346 9.51 10.01 8.6346 10.3493 7.516C10.4946 7.03707 10.5 6.43194 10.5 5V2.1C10.5 1.81172 10.4996 1.62559 10.488 1.48392C10.4769 1.34809 10.4581 1.29773 10.4455 1.273ZM10.4455 1.273L10.8864 1.04834" stroke="#E66D17"/>
<path d="M10.5 1H12.5C12.7761 1 13 1.22386 13 1.5V2.68121C13 3.28125 12.6424 3.82356 12.0909 4.05993L10.5 4.74173V1Z" stroke="#E66D17"/>
</svg>
