<svg width="14" height="14" viewBox="0 0 14 14" fill="none" xmlns="http://www.w3.org/2000/svg">
<path fill-rule="evenodd" clip-rule="evenodd" d="M2.92163 2.46263C2.92163 2.46263 2.99241 2.56631 3.14545 2.80567C3.29848 3.04504 3.34769 3.1697 3.38191 3.23813C3.39125 3.229 3.63125 3.01705 3.65656 2.80567C3.66425 2.74141 3.64907 2.6164 3.56319 2.5333C3.48503 2.45768 3.3378 2.42096 3.29998 2.41495C3.09843 2.38293 2.95458 2.45453 2.92163 2.46263Z" fill="#0CC0DF"/>
<path fill-rule="evenodd" clip-rule="evenodd" d="M10.6289 11.0843C10.7054 11.1602 10.7145 11.2835 10.7815 11.3884C10.8951 11.5783 11.0942 11.8342 11.2749 11.9677C11.4744 12.1197 11.6738 12.3759 11.883 12.5088C12.2531 12.7377 12.6711 12.8793 13.0314 13.1074C13.241 13.2403 13.4492 13.2967 13.6588 13.4395C13.7629 13.5156 13.8288 13.6392 13.9623 13.686C13.9231 13.6194 13.8279 13.185 13.5291 12.783C13.3176 12.4983 12.9124 12.2299 12.7592 12.1197C12.4551 11.9101 12.006 11.6252 11.883 11.275C12.0727 11.2362 12.8181 11.1878 13.1505 11.1025C13.3027 11.0642 13.6588 10.8469 13.6588 10.8469C13.5675 10.7562 13.4969 10.3024 13 9.84547C12.5615 9.44217 11.7041 9.03657 11.446 8.87597C11.1512 8.68606 10.1547 8.44433 10.088 8.34897C9.9169 8.13999 9.8216 7.86506 9.6984 7.61773C9.4233 7.09607 9.1569 6.517 8.9199 5.96532C8.74906 5.59523 8.64457 5.22515 8.43558 4.88306C7.457 3.26839 6.39381 2.29083 4.76048 1.33152C4.40906 1.13167 3.99129 1.04645 3.54532 0.941961C3.30752 0.932021 3.07033 0.913551 2.83294 0.904221C2.68077 0.837471 2.52859 0.724041 2.3959 0.638621C1.85436 0.296941 0.459029 -0.510795 0.0599288 0.467181C-0.196537 1.0848 0.439749 1.69228 0.658279 2.00576C0.819579 2.22387 1.02877 2.4712 1.14219 2.71773C1.20874 2.87923 1.22781 3.05048 1.29457 3.22112C1.44633 3.63889 1.58857 4.10433 1.78842 4.4939C1.89251 4.69335 2.00633 4.90254 2.13923 5.0821C2.21593 5.1872 2.34842 5.23407 2.37703 5.40552C2.24454 5.59523 2.23419 5.8801 2.1583 6.1177C1.81662 7.19083 1.94932 8.52022 2.43384 9.30827C2.58541 9.54567 2.94677 10.0682 3.43109 9.86827C3.85839 9.69767 3.76343 9.15627 3.8868 8.68173C3.9152 8.56709 3.89613 8.49181 3.95294 8.41593C4.08584 8.7006 4.21914 8.95645 4.34251 9.22307C4.63732 9.68787 5.98517 10.9605 6.27004 11.0652C6.19416 10.9514 5.95521 10.4669 5.8217 10.2771C5.423 9.74557 5.12591 9.15627 4.81325 8.54862C4.66087 8.25361 4.38913 7.88587 4.26557 7.59167C4.24553 7.55167 4.07413 7.22673 3.97847 7.24711C3.80284 7.28453 3.45992 7.77463 3.39241 7.94013C3.21183 8.34897 3.20558 8.7006 3.13863 9.22307C3.10089 9.23297 2.76591 8.85894 2.67727 8.25018C2.57064 7.5178 2.6502 6.62816 2.78526 6.20291C2.85141 6.00387 3.12926 5.37712 3.01483 5.1872C2.95741 5.00602 2.88955 4.90254 2.78526 4.75949C2.6621 4.57912 2.46164 4.35167 2.37703 4.15181C2.14897 3.62022 1.92685 3.0312 1.68073 2.49961C1.5667 2.25228 1.3601 1.99581 1.1992 1.76836C1.01842 1.5119 0.449289 0.704771 0.524969 0.591151C0.543639 0.515061 0.582189 0.486451 0.658279 0.467181C0.781029 0.362891 1.33836 0.684161 1.44987 0.754141C1.69236 0.906321 2.02139 1.25174 2.13923 1.33152C2.27233 1.42668 2.41477 1.45468 2.58541 1.50257H2.78526C3.089 1.56851 3.43109 1.56462 3.71616 1.65045C4.21914 1.81176 4.67486 2.15849 5.08349 2.41495C6.32706 3.20321 7.35271 4.36665 8.04561 5.70538C8.15984 5.9235 8.75859 7.29459 8.95764 7.74989C9.1569 8.19627 9.3472 8.50507 9.6325 8.87597C9.7745 9.07497 10.3444 9.20377 10.6009 9.30827C10.7904 9.39347 11.0852 9.50367 11.2563 9.60797C11.5791 9.80717 11.9013 9.95367 12.2056 10.1725C12.3572 10.2863 12.6176 10.3908 12.6462 10.5811C12.2803 10.5719 11.7207 10.5929 11.3485 10.6928C10.9477 10.8003 10.639 10.9907 10.6289 11.0843Z" fill="#0CC0DF"/>
</svg>
