<svg width="15" height="14" viewBox="0 0 15 14" fill="none" xmlns="http://www.w3.org/2000/svg">
<path d="M7.69557 8.18692C8.38473 8.18692 8.9434 7.62825 8.9434 6.93909C8.9434 6.24994 8.38473 5.69127 7.69557 5.69127C7.00642 5.69127 6.44775 6.24994 6.44775 6.93909C6.44775 7.62825 7.00642 8.18692 7.69557 8.18692Z" fill="#3FA1C4"/>
<path d="M7.69566 9.49557C11.3936 9.49557 14.3913 8.351 14.3913 6.93907C14.3913 5.52715 11.3936 4.38255 7.69566 4.38255C3.99775 4.38255 1 5.52715 1 6.93907C1 8.351 3.99775 9.49557 7.69566 9.49557Z" stroke="#0CC0DF" stroke-width="0.608696"/>
<path d="M5.48155 8.21734C7.3305 11.4199 9.82064 13.4437 11.0434 12.7377C12.2661 12.0318 11.7585 8.8633 9.90954 5.66082C8.06062 2.45834 5.5705 0.434515 4.34774 1.14048C3.12497 1.84644 3.6326 5.01486 5.48155 8.21734Z" stroke="#0CC0DF" stroke-width="0.608696"/>
<path d="M5.48147 5.66083C3.63251 8.86331 3.12489 12.0318 4.34765 12.7377C5.57042 13.4437 8.06054 11.4199 9.90945 8.21735C11.7584 5.01487 12.266 1.84645 11.0433 1.14048C9.82055 0.434521 7.33042 2.45835 5.48147 5.66083Z" stroke="#0CC0DF" stroke-width="0.608696"/>
</svg>
