<svg width="16" height="16" viewBox="0 0 16 16" fill="none" xmlns="http://www.w3.org/2000/svg">
<path d="M13.5 7.83333H13.4067C13.0233 6.12 11.4933 4.83333 9.66667 4.83333H8.5V4.40666C9.08 4.2 9.5 3.65 9.5 3C9.5 2.17333 8.82667 1.5 8 1.5C7.17333 1.5 6.5 2.17333 6.5 3C6.5 3.65 6.92 4.2 7.5 4.40666V4.83333H6.33333C4.50667 4.83333 2.97667 6.12 2.59333 7.83333H2.5C1.95 7.83333 1.5 8.28333 1.5 8.83333V9.83333C1.5 10.3833 1.95 10.8333 2.5 10.8333H2.68333C3.07667 12.06 4.07 13.0133 5.31667 13.36C5.22333 13.5567 5.16667 13.77 5.16667 14C5.16667 14.2767 5.39 14.5 5.66667 14.5H10.3333C10.61 14.5 10.8333 14.2767 10.8333 14C10.8333 13.77 10.7767 13.5533 10.6833 13.36C11.93 13.0167 12.9233 12.06 13.3167 10.8333H13.5C14.05 10.8333 14.5 10.3833 14.5 9.83333V8.83333C14.5 8.28333 14.05 7.83333 13.5 7.83333ZM8 2.5C8.27667 2.5 8.5 2.72333 8.5 3C8.5 3.27666 8.27667 3.5 8 3.5C7.72333 3.5 7.5 3.27666 7.5 3C7.5 2.72333 7.72333 2.5 8 2.5ZM9.66667 12.5H6.33333C4.77 12.5 3.5 11.23 3.5 9.66666V8.66666C3.5 7.10333 4.77 5.83333 6.33333 5.83333H9.66667C11.23 5.83333 12.5 7.10333 12.5 8.66666V9.66666C12.5 11.23 11.23 12.5 9.66667 12.5Z" fill="#00CCCC"/>
<path d="M6.16667 7.16666C5.61667 7.16666 5.16667 7.61666 5.16667 8.16666V9.16666C5.16667 9.71666 5.61667 10.1667 6.16667 10.1667C6.71667 10.1667 7.16667 9.71666 7.16667 9.16666V8.16666C7.16667 7.61666 6.71667 7.16666 6.16667 7.16666Z" fill="#00CCCC"/>
<path d="M9.83333 7.16666C9.28333 7.16666 8.83333 7.61666 8.83333 8.16666V9.16666C8.83333 9.71666 9.28333 10.1667 9.83333 10.1667C10.3833 10.1667 10.8333 9.71666 10.8333 9.16666V8.16666C10.8333 7.61666 10.3833 7.16666 9.83333 7.16666Z" fill="#00CCCC"/>
<path d="M4.51 2.47333L5.51 2.80666C5.56333 2.82333 5.61667 2.83333 5.66667 2.83333C5.87667 2.83333 6.07 2.7 6.14 2.49C6.22667 2.22666 6.08667 1.94333 5.82333 1.85666L4.82333 1.52333C4.56333 1.43666 4.28 1.57666 4.19 1.84C4.1 2.10333 4.24333 2.38666 4.50667 2.47333H4.51Z" fill="#00CCCC"/>
<path d="M4.66667 4.5C4.72 4.5 4.77333 4.49333 4.82333 4.47333L5.82333 4.14C6.08667 4.05333 6.22667 3.77 6.14 3.50666C6.05333 3.24333 5.77 3.10333 5.50667 3.19L4.50667 3.52333C4.24333 3.61 4.10333 3.89333 4.19 4.15666C4.26 4.36666 4.45333 4.5 4.66333 4.5H4.66667Z" fill="#00CCCC"/>
<path d="M10.3333 2.83333C10.3867 2.83333 10.44 2.82666 10.49 2.80666L11.49 2.47333C11.7533 2.38666 11.8933 2.10333 11.8067 1.84C11.72 1.57666 11.4367 1.43666 11.1733 1.52333L10.1733 1.85666C9.91 1.94333 9.77 2.22666 9.85667 2.49C9.92667 2.7 10.12 2.83333 10.33 2.83333H10.3333Z" fill="#00CCCC"/>
<path d="M10.1767 4.14L11.1767 4.47333C11.23 4.49 11.2833 4.5 11.3333 4.5C11.5433 4.5 11.7367 4.36666 11.8067 4.15666C11.8933 3.89333 11.7533 3.61 11.49 3.52333L10.49 3.19C10.23 3.10333 9.94333 3.24333 9.85667 3.50666C9.77 3.77 9.91 4.05333 10.1733 4.14H10.1767Z" fill="#00CCCC"/>
</svg>
